<svg xmlns="http://www.w3.org/2000/svg" version="1.1" xmlns:xlink="http://www.w3.org/1999/xlink" xmlns:svgjs="http://svgjs.dev/svgjs" width="1000" height="1000" viewBox="0 0 1000 1000"><rect width="1000" height="1000" fill="#ff4136"></rect><g transform="matrix(0.4394224733207784,0,0,0.4394224733207784,280.592107067428,150.28340080971657)"><svg viewBox="0 0 155 247" data-background-color="#ff4136" preserveAspectRatio="xMidYMid meet" height="1593" width="1000" xmlns="http://www.w3.org/2000/svg" xmlns:xlink="http://www.w3.org/1999/xlink"><g id="tight-bounds" transform="matrix(1,0,0,1,-0.10699983349437048,-0.09999999999999432)"><svg viewBox="0 0 155.2139136 247.2" height="247.2" width="155.2139136"><g><svg></svg></g><g><svg viewBox="0 0 155.2139136 247.2" height="247.2" width="155.2139136"><g transform="matrix(1,0,0,1,0,47.215199999999996)"><svg viewBox="0 0 155.2139136 152.7696" height="152.7696" width="155.2139136"><g><svg viewBox="0 0 155.2139136 152.7696" height="152.7696" width="155.2139136"><g><svg viewBox="0 0 155.2139136 152.7696" height="152.7696" width="155.2139136"><g><svg viewBox="0 0 155.2139136 152.7696" height="152.7696" width="155.2139136"><g id="textblocktransform"><svg viewBox="0 0 155.2139136 152.7696" height="152.7696" width="155.2139136" id="textblock"><g><svg viewBox="0 0 155.2139136 152.7696" height="152.7696" width="155.2139136"><g transform="matrix(1,0,0,1,0,0)"><svg width="155.2139136" viewBox="1.9000000953674316 -43.349998474121094 44.44999694824219 43.75" height="152.7696" data-palette-color="#ffffff"><path d="M1.9 0L1.9-42.95 13.25-42.95Q18.4-42.95 20.6-39.63 22.8-36.3 22.8-29.9L22.8-29.9Q22.8-23.5 20.85-20.25 18.9-17 13.85-17L13.85-17 10.35-17 10.35 0 1.9 0ZM10.35-24.75L10.85-24.75Q12.4-24.75 13.13-25.33 13.85-25.9 14.08-26.98 14.3-28.05 14.3-30.05L14.3-30.05Q14.3-32.75 13.7-33.95 13.1-35.15 11.3-35.15L11.3-35.15 10.35-35.15 10.35-24.75ZM35.75 0.4Q30.55 0.4 27.85-2.78 25.15-5.95 25.15-11.7L25.15-11.7 25.15-32.15Q25.15-37.7 27.85-40.53 30.55-43.35 35.75-43.35L35.75-43.35Q40.95-43.35 43.65-40.53 46.35-37.7 46.35-32.15L46.35-32.15 46.35-11.7Q46.35-5.9 43.65-2.75 40.95 0.4 35.75 0.4L35.75 0.4ZM35.75-7.5Q36.9-7.5 37.3-8.5 37.7-9.5 37.7-11.3L37.7-11.3 37.7-32.3Q37.7-33.7 37.32-34.58 36.95-35.45 35.8-35.45L35.8-35.45Q33.65-35.45 33.65-32.2L33.65-32.2 33.65-11.25Q33.65-9.4 34.1-8.45 34.55-7.5 35.75-7.5L35.75-7.5Z" opacity="1" transform="matrix(1,0,0,1,0,0)" fill="#ffffff" class="undefined-text-0" data-fill-palette-color="primary" id="text-0"></path></svg></g></svg></g></svg></g></svg></g><g></g></svg></g></svg></g></svg></g><path d="M0 41.215L0 1 155.214 1 155.214 41.215 141.437 41.215 141.437 14.777 13.777 14.777 13.777 41.215 0 41.215M0 205.985L0 246.2 155.214 246.2 155.214 205.985 141.437 205.985 141.437 232.423 13.777 232.423 13.777 205.985 0 205.985" fill="#ffffff" stroke="transparent" data-fill-palette-color="primary"></path></svg></g><defs></defs></svg><rect width="155.2139136" height="247.2" fill="none" stroke="none" visibility="hidden"></rect></g></svg></g></svg>